<?xml version="1.0" encoding="UTF-8" standalone="no"?>
<!DOCTYPE svg PUBLIC "-//W3C//DTD SVG 1.1//EN" "http://www.w3.org/Graphics/SVG/1.1/DTD/svg11.dtd">
<!-- Created with Vectornator (http://vectornator.io/) -->
<svg stroke-miterlimit="10" style="fill-rule:nonzero;clip-rule:evenodd;stroke-linecap:round;stroke-linejoin:round;" version="1.1" viewBox="0 0 100 100" xml:space="preserve" xmlns="http://www.w3.org/2000/svg" xmlns:xlink="http://www.w3.org/1999/xlink">
<defs/>
<g id="Bg" visibility="hidden">
<path d="M0 0L100 0L100 100L0 100L0 0Z" fill="#141414" fill-rule="nonzero" opacity="1" stroke="none"/>
</g>
<g id="Blades">
<path d="M54.2846 66.1322C54.204 67.0909 54.0941 68.0496 53.9403 69.0083C52.893 75.6453 49.6997 79.5833 48.0225 85.3575C46.0157 92.3485 52.8417 95.3573 58.6644 94.9664C61.6279 94.7007 64.5292 93.9536 67.2555 92.7541C69.6795 91.7159 71.9712 90.3889 74.0815 88.8014C88.8102 77.8871 85.8 63.0645 69.6065 54.6133C68.6513 54.122 67.6297 53.7742 66.5744 53.5809C65.9307 56.6751 64.4034 59.5125 62.1799 61.7444L62.1799 61.7444C60.0144 63.9309 57.2762 65.4527 54.2846 66.1322ZM50.7031 37.6078C57.62 37.6078 63.2273 43.2537 63.2273 50.2182C63.2273 57.1826 57.62 62.8285 50.7031 62.8285C43.7862 62.8285 38.1789 57.1826 38.1789 50.2182C38.1789 43.2537 43.7862 37.6078 50.7031 37.6078ZM66.567 46.907C67.4899 46.9439 68.42 47.0103 69.3429 47.1209C75.9785 47.8583 80.0213 50.9261 85.822 52.3567C92.8531 54.0897 95.541 47.0693 94.9112 41.2287C94.5107 38.2612 93.6325 35.3794 92.3111 32.6964C91.1736 30.3039 89.7574 28.0561 88.0925 26.0004C76.6083 11.6349 62.0408 15.3222 54.3651 32.0106C54.0427 32.704 53.7971 33.4311 53.6327 34.1787C56.8537 34.7763 59.8173 36.3481 62.1286 38.6845L62.1286 38.6845C64.3571 40.9303 65.8847 43.7834 66.5231 46.8923L66.567 46.907ZM46.8653 34.3704C46.8653 33.1905 46.9605 32.0032 47.0923 30.8233C47.8247 24.1347 50.8423 20.0566 52.2192 14.216C53.9696 7.12915 46.9825 4.44484 41.1891 5.09379C38.2412 5.50209 35.3791 6.3913 32.7152 7.72648C30.3407 8.87267 28.1127 10.3039 26.0796 11.9889C11.8636 23.5816 15.5402 38.242 32.1 45.9336C32.9762 46.3372 33.9025 46.62 34.8538 46.7743C36.1661 40.6637 40.8316 35.8458 46.8653 34.3704ZM34.7806 53.2417C33.382 53.26 31.9834 53.2009 30.5912 53.0647C23.941 52.4157 19.8468 49.4365 14.0242 48.1017C6.96376 46.4793 4.39301 53.5514 5.1181 59.3772C5.56808 62.3374 6.49322 65.2042 7.85729 67.8652C9.03149 70.2438 10.4847 72.4721 12.1858 74.5023C23.9043 88.6391 38.406 84.7306 45.8106 67.9316C46.0823 67.2981 46.2979 66.6417 46.4551 65.97C40.4653 64.326 35.9326 59.3842 34.7806 53.2417Z" fill="#3e68ff" fill-rule="evenodd" opacity="1" stroke="none"/>
</g>
<clipPath id="ArtboardFrame">
<rect height="100" width="100" x="0" y="0"/>
</clipPath>
<g clip-path="url(#ArtboardFrame)" id="Corners">
<path d="M97.5 98.3444L77.5 98.3444L97.5 78.3444L97.5 98.3444Z" fill="#ffffff" fill-rule="nonzero" opacity="1" stroke="#ffffff" stroke-linecap="butt" stroke-linejoin="round" stroke-width="5"/>
<path d="M97.5 2.5L77.5 2.5L97.5 22.5L97.5 2.5Z" fill="#ffffff" fill-rule="nonzero" opacity="1" stroke="#ffffff" stroke-linecap="butt" stroke-linejoin="round" stroke-width="5"/>
<path d="M2.5 97.5L22.5 97.5L2.5 77.5L2.5 97.5Z" fill="#ffffff" fill-rule="nonzero" opacity="1" stroke="#ffffff" stroke-linecap="butt" stroke-linejoin="round" stroke-width="5"/>
<path d="M2.5 2.5L22.5 2.5L2.5 22.5L2.5 2.5Z" fill="#ffffff" fill-rule="nonzero" opacity="1" stroke="#ffffff" stroke-linecap="butt" stroke-linejoin="round" stroke-width="5"/>
</g>
</svg>
