<?xml version="1.0" encoding="UTF-8" standalone="no"?>
<!DOCTYPE svg PUBLIC "-//W3C//DTD SVG 1.1//EN" "http://www.w3.org/Graphics/SVG/1.1/DTD/svg11.dtd">
<!-- Created with Vectornator (http://vectornator.io/) -->
<svg stroke-miterlimit="10" style="fill-rule:nonzero;clip-rule:evenodd;stroke-linecap:round;stroke-linejoin:round;" version="1.1" viewBox="0 0 100 100" xml:space="preserve" xmlns="http://www.w3.org/2000/svg" xmlns:xlink="http://www.w3.org/1999/xlink">
<defs/>
<g id="Blades">
<path d="M53.5705 63.4435C53.5033 64.2424 53.4118 65.0413 53.2836 65.8402C52.4108 71.3711 49.7498 74.6527 48.3521 79.4646C46.6797 85.2904 52.3681 87.7977 57.2203 87.472C59.6899 87.2506 62.1076 86.628 64.3796 85.6284C66.3996 84.7632 68.3094 83.6574 70.0679 82.3345C82.3419 73.2393 79.8334 60.8871 66.3388 53.8444C65.5427 53.435 64.6914 53.1451 63.812 52.9841C63.2756 55.5625 62.0028 57.9271 60.1499 59.787L60.1499 59.787C58.3453 61.6091 56.0635 62.8772 53.5705 63.4435ZM50.5859 39.6732C56.35 39.6732 61.0227 44.378 61.0227 50.1818C61.0227 55.9855 56.35 60.6904 50.5859 60.6904C44.8218 60.6904 40.1491 55.9855 40.1491 50.1818C40.1491 44.378 44.8218 39.6732 50.5859 39.6732ZM63.8059 47.4225C64.5749 47.4532 65.35 47.5085 66.119 47.6007C71.6487 48.2153 75.0178 50.7718 79.8517 51.964C85.7109 53.4081 87.9509 47.5577 87.426 42.6906C87.0922 40.2177 86.3604 37.8161 85.2593 35.5804C84.3113 33.5865 83.1312 31.7134 81.7437 30.0003C72.1736 18.0291 60.034 21.1018 53.6376 35.0088C53.3689 35.5867 53.1642 36.1926 53.0273 36.8156C55.7114 37.3136 58.1811 38.6234 60.1072 40.5704L60.1072 40.5704C61.9643 42.4419 63.2372 44.8195 63.7692 47.4102L63.8059 47.4225ZM47.3877 36.9754C47.3877 35.9921 47.4671 35.0027 47.5769 34.0194C48.1873 28.4456 50.7019 25.0472 51.8493 20.18C53.308 14.2743 47.4854 12.0374 42.6576 12.5782C40.201 12.9184 37.8159 13.6594 35.596 14.7721C33.6173 15.7272 31.7605 16.9199 30.0663 18.3241C18.2196 27.9847 21.2835 40.2017 35.0833 46.6113C35.8135 46.9477 36.5854 47.1833 37.3782 47.3119C38.4718 42.2197 42.3597 38.2049 47.3877 36.9754ZM37.3171 52.7014C36.1516 52.7167 34.9862 52.6674 33.826 52.5539C28.2841 52.0131 24.8723 49.5304 20.0201 48.4181C14.1365 47.0661 11.9942 52.9595 12.5984 57.8144C12.9734 60.2812 13.7444 62.6701 14.8811 64.8877C15.8596 66.8699 17.0706 68.7267 18.4882 70.4186C28.2536 82.1993 40.3383 78.9422 46.5088 64.943C46.7352 64.4151 46.9149 63.8681 47.0459 63.3083C42.0544 61.9383 38.2772 57.8202 37.3171 52.7014Z" fill="#3e68ff" fill-rule="evenodd" opacity="1" stroke="none"/>
</g>
<g id="Ring">
<path d="M5 50C5 25.1472 25.1472 5 50 5C74.8528 5 95 25.1472 95 50C95 74.8528 74.8528 95 50 95C25.1472 95 5 74.8528 5 50Z" fill="none" opacity="0.979364" stroke="#3e68ff" stroke-linecap="butt" stroke-linejoin="round" stroke-width="5"/>
</g>
<clipPath id="ArtboardFrame">
<rect height="100" width="100" x="0" y="0"/>
</clipPath>
<g clip-path="url(#ArtboardFrame)" id="Corners">
<path d="M97.5 98.3444L77.5 98.3444L97.5 78.3444L97.5 98.3444Z" fill="#ffffff" fill-rule="nonzero" opacity="1" stroke="#ffffff" stroke-linecap="butt" stroke-linejoin="round" stroke-width="5"/>
<path d="M97.5 2.5L77.5 2.5L97.5 22.5L97.5 2.5Z" fill="#ffffff" fill-rule="nonzero" opacity="1" stroke="#ffffff" stroke-linecap="butt" stroke-linejoin="round" stroke-width="5"/>
<path d="M2.5 97.5L22.5 97.5L2.5 77.5L2.5 97.5Z" fill="#ffffff" fill-rule="nonzero" opacity="1" stroke="#ffffff" stroke-linecap="butt" stroke-linejoin="round" stroke-width="5"/>
<path d="M2.5 2.5L22.5 2.5L2.5 22.5L2.5 2.5Z" fill="#ffffff" fill-rule="nonzero" opacity="1" stroke="#ffffff" stroke-linecap="butt" stroke-linejoin="round" stroke-width="5"/>
</g>
</svg>
